<?xml version="1.0" standalone="no"?>
<!DOCTYPE svg PUBLIC "-//W3C//DTD SVG 20010904//EN"
 "http://www.w3.org/TR/2001/REC-SVG-20010904/DTD/svg10.dtd">
<svg version="1.0" xmlns="http://www.w3.org/2000/svg"
 width="1920.000000pt" height="280.000000pt" viewBox="0 0 1920.000000 280.000000"
 preserveAspectRatio="xMidYMid meet">

<g transform="translate(0.000000,280.000000) scale(0.100000,-0.100000)"
fill="#000000" stroke="none">
<path d="M0 1240 l0 -1240 9600 0 9600 0 0 1222 c0 673 -4 1218 -9 1212 -48
-53 -313 -423 -433 -604 -133 -200 -209 -292 -372 -455 -139 -139 -458 -395
-651 -523 -185 -124 -478 -240 -709 -284 -102 -19 -165 -21 -781 -28 -586 -7
-694 -10 -860 -29 -607 -68 -887 -86 -1370 -86 -414 0 -424 1 -670 32 -342 44
-495 54 -881 54 -508 0 -902 -29 -1294 -95 -372 -62 -459 -70 -765 -71 -154 0
-370 6 -480 13 -152 10 -372 12 -915 7 -579 -5 -780 -4 -1055 9 -804 38 -2089
40 -2655 5 -85 -5 -357 -12 -605 -15 -368 -5 -495 -3 -695 10 -1182 82 -2039
346 -2823 870 -170 114 -306 227 -437 362 -137 142 -222 247 -400 494 -167
231 -231 310 -286 349 -23 17 -45 31 -48 31 -3 0 -6 -558 -6 -1240z"/>
</g>
</svg>
